# xmcd
#
# Track frame offsets:
#	150
#	21489
#	36277
#	64737
#	83543
#	116846
#	133566
#	147242
#	159742
#	180443
#	193143
#	209435
#	224168
#	228887
#	230985
#	232687
#	235003
#	236934
#
# Disc length: 3169 seconds
#
# Revision: 0
# Processed by: cddbd v1.5.2PL0 Copyright (c) Steve Scherf et al.
# Submitted via: EZCDAudioConverter 1.3.4.1
#
DISCID=070c5f12
DTITLE=Triorganico - Convivência
DYEAR=2009
DGENRE=
TTITLE0=El Commendante
TTITLE1=Correndo
TTITLE2=Kathy
TTITLE3=Ginga Carioca
TTITLE4=Tempo De Amor
TTITLE5=Amphibious
TTITLE6=25 De Octobro Nostalgia
TTITLE7=Tiki's Take
TTITLE8=January 11th
TTITLE9=December 23rd
TTITLE10=Nana
TTITLE11=After Thought
TTITLE12=Balloons
TTITLE13=Cosita One
TTITLE14=Cosita Two
TTITLE15=Cosita Three
TTITLE16=Cosita Four
TTITLE17=Cosita Five
EXTD=
EXTT0=
EXTT1=
EXTT2=
EXTT3=
EXTT4=
EXTT5=
EXTT6=
EXTT7=
EXTT8=
EXTT9=
EXTT10=
EXTT11=
EXTT12=
EXTT13=
EXTT14=
EXTT15=
EXTT16=
EXTT17=
PLAYORDER=
